# Blender 4.1.1
# www.blender.org
mtllib 60x35mm.mtl
o 60x35mm
v 0.674162 0.000015 -0.230183
v 0.687369 0.000015 -0.000112
v 0.000034 -0.000000 -0.000111
v 0.635048 0.000015 -0.451414
v 0.673330 0.009817 0.229675
v 0.634265 0.009816 0.450633
v 0.635049 0.000015 0.451190
v 0.674162 0.000015 0.229960
v -0.674093 0.000014 0.229960
v -0.687300 0.000015 -0.000111
v -0.634980 0.000014 0.451190
v 0.356771 0.127601 0.941598
v 0.454051 0.127601 0.800717
v 0.000034 0.127609 -0.000111
v 0.245785 0.127601 1.046283
v -0.629503 0.127601 -0.221315
v -0.641838 0.127601 -0.000312
v -0.592972 0.127601 -0.433825
v -0.629503 0.127601 0.220692
v -0.592972 0.127601 0.433202
v 0.629741 0.127602 0.220691
v 0.642076 0.127602 -0.000312
v 0.593210 0.127602 0.433201
v -0.533649 0.127601 0.629052
v -0.453814 0.127601 0.800717
v 0.629741 0.127602 -0.221316
v 0.593209 0.127602 -0.433826
v 0.125358 0.127602 -1.111371
v 0.000119 0.127602 -1.133138
v 0.245785 0.127602 -1.046907
v -0.356533 0.127601 0.941599
v -0.245547 0.127601 1.046283
v 0.533886 0.127602 -0.629677
v 0.454051 0.127602 -0.801341
v -0.125121 0.127602 -1.111371
v -0.245548 0.127602 -1.046907
v -0.125121 0.127601 1.110747
v 0.000119 0.127601 1.132514
v 0.354112 0.127602 -0.938274
v -0.356534 0.127601 -0.942222
v -0.453814 0.127601 -0.801341
v 0.125358 0.127601 1.110747
v 0.571532 0.000015 0.655077
v 0.486053 0.000015 0.833785
v -0.674093 0.000015 -0.230183
v -0.634980 0.000015 -0.451413
v 0.381897 0.000015 0.980447
v 0.263066 0.000015 1.089427
v -0.571463 0.000015 -0.655300
v -0.485985 0.000015 -0.834008
v 0.134127 0.000015 1.156537
v 0.000034 0.000015 1.179197
v -0.381828 0.000015 -0.980670
v -0.262997 0.000015 -1.089650
v 0.381897 0.000015 -0.980671
v 0.486053 0.000015 -0.834008
v 0.263066 0.000015 -1.089650
v -0.134058 0.000014 1.156537
v -0.262997 0.000014 1.089427
v -0.134058 0.000015 -1.156760
v 0.000034 0.000015 -1.179420
v 0.571532 0.000015 -0.655300
v 0.134126 0.000015 -1.156760
v -0.571463 0.000014 0.655077
v -0.485984 0.000014 0.833785
v 0.533886 0.127601 0.629052
v -0.533649 0.127601 -0.629676
v -0.381828 0.000014 0.980448
v -0.634196 0.009816 0.450634
v -0.673261 0.009816 0.229677
v 0.381426 0.009817 -0.979461
v 0.485453 0.009817 -0.832980
v 0.686521 0.009817 -0.000113
v -0.570758 0.009816 0.654270
v 0.262741 0.009817 -1.088306
v 0.673330 0.009817 -0.229901
v -0.485384 0.009816 0.832757
v 0.133961 0.009817 -1.155333
v 0.634265 0.009817 -0.450858
v -0.381356 0.009816 0.979238
v 0.000034 0.009817 -1.177964
v 0.570826 0.009817 -0.654494
v -0.262672 0.009816 1.088083
v -0.133893 0.009817 -1.155332
v 0.457748 0.120115 -0.807814
v 0.538248 0.120115 -0.634721
v -0.133892 0.009816 1.155110
v -0.262673 0.009816 -1.088306
v 0.000035 0.009816 1.177742
v -0.381357 0.009816 -0.979460
v 0.133962 0.009816 1.155110
v -0.485385 0.009816 -0.832979
v 0.262742 0.009816 1.088083
v -0.570758 0.009816 -0.654491
v 0.381426 0.009816 0.979237
v -0.634196 0.009816 -0.450856
v 0.485454 0.009816 0.832756
v -0.673261 0.009816 -0.229899
v 0.570827 0.009816 0.654268
v -0.686452 0.009816 -0.000111
v 0.598067 0.120114 0.437013
v 0.538249 0.120114 0.634495
v -0.634833 0.120114 0.222734
v -0.647271 0.120114 -0.000111
v -0.634833 0.120114 -0.222955
v 0.457749 0.120114 0.807590
v -0.597998 0.120114 -0.437237
v 0.359658 0.120114 0.949645
v -0.538181 0.120114 -0.634719
v 0.247748 0.120114 1.055202
v -0.457680 0.120114 -0.807814
v 0.126318 0.120114 1.120204
v -0.359589 0.120114 -0.949869
v 0.000035 0.120114 1.142153
v -0.247679 0.120114 -1.055425
v -0.126248 0.120114 1.120204
v -0.126249 0.120114 -1.120427
v -0.247678 0.120114 1.055203
v 0.000034 0.120115 -1.142375
v -0.359589 0.120114 0.949647
v 0.598066 0.120115 -0.437238
v 0.126317 0.120115 -1.120427
v -0.457679 0.120114 0.807592
v 0.634902 0.120115 -0.222958
v 0.247747 0.120115 -1.055426
v -0.538180 0.120114 0.634497
v 0.647340 0.120115 -0.000113
v 0.357144 0.120115 -0.943208
v -0.597998 0.120114 0.437015
v 0.634902 0.120114 0.222732
v 0.656961 0.009840 0.341800
v 0.614433 0.127620 0.328530
v 0.619467 0.120096 0.331469
v 0.657772 -0.000009 0.342224
v 0.638985 0.127620 0.110724
v 0.683215 0.009840 0.115337
v 0.684059 -0.000009 0.115481
v 0.644223 0.120096 0.111849
v 0.684059 -0.000008 -0.115704
v 0.683215 0.009840 -0.115563
v 0.638985 0.127620 -0.111349
v 0.644223 0.120096 -0.112074
v 0.657772 -0.000008 -0.342447
v 0.619467 0.120096 -0.331695
v 0.614433 0.127620 -0.329154
v 0.656960 0.009840 -0.342026
v 0.570906 0.120097 -0.538572
v 0.566274 0.127620 -0.534323
v 0.605461 0.009841 -0.555349
v 0.606209 -0.000008 -0.556034
v 0.496358 0.127620 -0.718969
v 0.500408 0.120097 -0.724757
v 0.531351 -0.000008 -0.748257
v 0.530695 0.009841 -0.747335
v 0.305172 0.120097 -1.007499
v 0.302735 0.127620 -0.999376
v 0.324041 -0.000008 -1.040169
v 0.323642 0.009841 -1.038885
v 0.407798 0.120097 -0.876915
v 0.436074 -0.000008 -0.911729
v 0.435536 0.009841 -0.910604
v 0.404713 0.127620 -0.872050
v 0.199557 -0.000008 -1.128639
v 0.187937 0.120096 -1.093190
v 0.199310 0.009840 -1.127247
v 0.186469 0.127620 -1.084359
v 0.067321 0.009840 -1.172293
v 0.063481 0.120096 -1.136875
v 0.063041 0.127620 -1.127683
v 0.067405 -0.000008 -1.173741
v -0.062804 0.127620 -1.127683
v -0.067253 0.009840 -1.172293
v -0.063413 0.120096 -1.136875
v -0.067336 -0.000009 -1.173741
v -0.199489 -0.000009 -1.128639
v -0.186232 0.127620 -1.084359
v -0.199243 0.009840 -1.127246
v -0.187869 0.120096 -1.093190
v -0.323973 -0.000009 -1.040168
v -0.305104 0.120096 -1.007498
v -0.302498 0.127620 -0.999375
v -0.323574 0.009840 -1.038885
v -0.436006 -0.000009 -0.911729
v -0.435468 0.009840 -0.910604
v -0.410612 0.120096 -0.883093
v -0.407135 0.127619 -0.875998
v -0.531283 -0.000009 -0.748257
v -0.496121 0.127619 -0.718969
v -0.500340 0.120096 -0.724755
v -0.530627 0.009840 -0.747333
v -0.606140 -0.000009 -0.556033
v -0.566037 0.127619 -0.534322
v -0.570838 0.120096 -0.538571
v -0.605393 0.009840 -0.555347
v -0.657704 -0.000009 -0.342446
v -0.619398 0.120096 -0.331693
v -0.614196 0.127619 -0.329154
v -0.656892 0.009840 -0.342024
v -0.644154 0.120096 -0.112072
v -0.683990 -0.000009 -0.115704
v -0.683146 0.009840 -0.115561
v -0.638747 0.127619 -0.111348
v -0.683990 -0.000009 0.115481
v -0.638747 0.127619 0.110725
v -0.683146 0.009840 0.115339
v -0.644154 0.120096 0.111851
v -0.657703 -0.000009 0.342224
v -0.656892 0.009840 0.341802
v -0.614196 0.127619 0.328530
v -0.619398 0.120096 0.331471
v -0.605392 0.009840 0.555126
v -0.570838 0.120096 0.538349
v -0.606140 -0.000009 0.555811
v -0.566037 0.127619 0.533699
v -0.530626 0.009840 0.747111
v -0.500339 0.120096 0.724534
v -0.496121 0.127619 0.718345
v -0.531282 -0.000009 0.748034
v -0.407134 0.127619 0.875374
v -0.436006 -0.000009 0.911506
v -0.435468 0.009840 0.910382
v -0.410611 0.120096 0.882871
v -0.305103 0.120096 1.007276
v -0.302498 0.127619 0.998751
v -0.323973 -0.000009 1.039945
v -0.323573 0.009840 1.038663
v -0.199488 -0.000009 1.128416
v -0.199242 0.009840 1.127024
v -0.186232 0.127619 1.083735
v -0.187868 0.120096 1.092967
v -0.062804 0.127619 1.127059
v -0.063412 0.120096 1.136652
v -0.067253 0.009840 1.172070
v -0.067336 -0.000009 1.173518
v 0.067322 0.009840 1.172070
v 0.063042 0.127619 1.127059
v 0.067405 -0.000009 1.173518
v 0.063482 0.120096 1.136652
v 0.187938 0.120096 1.092967
v 0.186469 0.127619 1.083735
v 0.199311 0.009840 1.127023
v 0.199557 -0.000009 1.128416
v 0.323642 0.009840 1.038662
v 0.324042 -0.000009 1.039945
v 0.302735 0.127619 0.998751
v 0.305173 0.120096 1.007275
v 0.410681 0.120096 0.882870
v 0.435537 0.009840 0.910381
v 0.407372 0.127619 0.875374
v 0.436075 -0.000009 0.911506
v 0.496358 0.127619 0.718345
v 0.530696 0.009840 0.747110
v 0.500409 0.120096 0.724532
v 0.531351 -0.000009 0.748034
v 0.570907 0.120096 0.538347
v 0.605461 0.009840 0.555124
v 0.606209 -0.000009 0.555811
v 0.566274 0.127620 0.533698
vn 0.9892 -0.1355 -0.0567
vn -0.0000 -1.0000 -0.0000
vn 0.9840 -0.1368 -0.1140
vn 0.9691 0.1785 0.1701
vn 0.9622 -0.1428 0.2321
vn 0.9751 -0.1395 0.1723
vn -0.9891 -0.1356 0.0567
vn -0.9840 -0.1368 0.1140
vn 0.3935 0.8784 0.2714
vn -0.0000 1.0000 -0.0000
vn 0.3481 0.8899 0.2948
vn -0.5718 0.8198 -0.0321
vn -0.5644 0.8230 -0.0639
vn -0.5518 0.8286 0.0948
vn -0.5616 0.8250 0.0631
vn 0.5819 0.8126 0.0323
vn 0.5738 0.8164 0.0644
vn -0.4612 0.8610 0.2145
vn -0.4894 0.8522 0.1851
vn 0.5672 0.8178 -0.0976
vn 0.5758 0.8150 -0.0652
vn 0.0659 0.9240 -0.3767
vn 0.1302 0.9199 -0.3699
vn -0.2949 0.9030 0.3125
vn -0.3423 0.8936 0.2903
vn 0.4781 0.8497 -0.2224
vn 0.5077 0.8398 -0.1923
vn -0.1910 0.9142 -0.3575
vn -0.1287 0.9208 -0.3682
vn -0.0632 0.9292 0.3641
vn -0.1245 0.9262 0.3558
vn 0.3459 0.8760 -0.3361
vn 0.4169 0.8463 -0.3316
vn -0.3967 0.8760 -0.2743
vn -0.3511 0.8875 -0.2984
vn 0.1865 0.9189 0.3476
vn 0.1260 0.9254 0.3575
vn 0.9840 -0.1368 0.1140
vn 0.8907 -0.1597 0.4257
vn 0.9210 -0.1528 0.3584
vn -0.9751 -0.1395 -0.1722
vn -0.9840 -0.1368 -0.1140
vn 0.6628 -0.1977 0.7222
vn 0.7406 -0.1867 0.6455
vn -0.8907 -0.1596 -0.4257
vn -0.9210 -0.1527 -0.3584
vn 0.1621 -0.2344 0.9585
vn 0.3146 -0.2281 0.9214
vn -0.6628 -0.1976 -0.7222
vn -0.7406 -0.1867 -0.6455
vn 0.8027 -0.1768 -0.5696
vn 0.7406 -0.1868 -0.6455
vn -0.4507 -0.2196 0.8652
vn -0.3147 -0.2281 0.9214
vn -0.1621 -0.2346 -0.9585
vn -0.3147 -0.2283 -0.9213
vn 0.9444 -0.1474 -0.2939
vn 0.9210 -0.1527 -0.3584
vn 0.4507 -0.2194 -0.8653
vn 0.3147 -0.2284 -0.9213
vn -0.9444 -0.1474 0.2939
vn -0.9210 -0.1527 0.3584
vn 0.5255 0.8358 0.1590
vn 0.4984 0.8462 0.1883
vn -0.5225 0.8378 -0.1585
vn -0.4970 0.8470 -0.1886
vn -0.8027 -0.1766 0.5696
vn -0.7406 -0.1866 0.6455
vn -0.9777 0.1774 0.1124
vn -0.9751 -0.1393 0.1723
vn -0.9691 0.1785 0.1701
vn 0.8477 0.1936 -0.4939
vn 0.7968 0.2049 -0.5685
vn 0.9827 0.1766 0.0561
vn 0.9892 -0.1355 0.0567
vn -0.9567 0.1801 0.2289
vn -0.9394 0.1822 0.2903
vn 0.7439 0.2107 -0.6342
vn 0.6628 -0.1978 -0.7222
vn 0.6718 0.2079 -0.7109
vn 0.9843 0.1765 -0.0000
vn 0.9827 0.1767 -0.0558
vn -0.9170 0.1845 0.3537
vn -0.8907 -0.1596 0.4257
vn -0.8878 0.1873 0.4204
vn 0.5715 0.2077 -0.7939
vn 0.4558 0.2121 -0.8644
vn 0.9777 0.1773 -0.1124
vn 0.9751 -0.1395 -0.1722
vn 0.9691 0.1785 -0.1701
vn -0.8504 0.1906 0.4903
vn -0.8027 0.1943 0.5638
vn 0.3192 0.2163 -0.9227
vn 0.1622 -0.2346 -0.9585
vn 0.1648 0.2188 -0.9618
vn 0.9567 0.1800 -0.2289
vn 0.9395 0.1821 -0.2901
vn -0.7423 0.1985 0.6399
vn -0.6628 -0.1977 0.7222
vn -0.6665 0.2029 0.7174
vn -0.1648 0.2188 -0.9617
vn -0.0000 -0.2363 -0.9717
vn 0.8123 0.4377 -0.3855
vn 0.8402 0.4347 -0.3243
vn -0.5715 0.2076 0.7939
vn -0.4558 0.2121 0.8644
vn -0.4558 0.2121 -0.8644
vn -0.4507 -0.2193 -0.8653
vn -0.3192 0.2163 0.9227
vn -0.1621 -0.2346 0.9585
vn -0.1649 0.2186 0.9618
vn -0.6661 0.2030 -0.7177
vn -0.5668 -0.2086 -0.7970
vn 0.1648 0.2187 0.9618
vn -0.0000 -0.2363 0.9717
vn -0.8025 0.1945 -0.5640
vn -0.8027 -0.1766 -0.5696
vn 0.4558 0.2121 0.8644
vn 0.4507 -0.2196 0.8652
vn -0.8876 0.1875 -0.4207
vn -0.8519 -0.1674 -0.4962
vn 0.6661 0.2030 0.7177
vn 0.5668 -0.2088 0.7969
vn -0.9396 0.1820 -0.2898
vn -0.9444 -0.1473 -0.2940
vn 0.8028 0.1943 0.5637
vn 0.8027 -0.1768 0.5696
vn -0.9692 0.1785 -0.1698
vn -0.9622 -0.1427 -0.2321
vn 0.8876 0.1875 0.4207
vn 0.8519 -0.1675 0.4961
vn -0.9827 0.1766 -0.0561
vn -0.9892 -0.1355 -0.0567
vn 0.8603 0.4349 0.2659
vn 0.8385 0.4378 0.3244
vn -0.5694 0.8215 0.0316
vn -0.9012 0.4335 0.0001
vn -0.8996 0.4336 0.0513
vn -0.9827 0.1766 0.0561
vn -0.9843 0.1765 -0.0000
vn 0.9170 0.1845 0.3536
vn 0.9396 0.1820 0.2899
vn -0.8954 0.4333 -0.1025
vn -0.9001 0.4328 -0.0510
vn 0.4333 0.8673 0.2452
vn 0.8105 0.4412 0.3852
vn 0.4693 0.8557 0.2180
vn -0.5561 0.8256 -0.0958
vn -0.8759 0.4346 -0.2095
vn -0.8876 0.4336 -0.1553
vn 0.7291 0.4508 0.5150
vn -0.8388 0.4379 -0.3237
vn -0.8599 0.4360 -0.2655
vn 0.2438 0.9110 0.3327
vn 0.5995 0.4652 0.6513
vn 0.2985 0.9006 0.3160
vn -0.4698 0.8553 -0.2188
vn -0.7759 0.4440 -0.4481
vn -0.8110 0.4407 -0.3849
vn 0.4053 0.4821 0.7768
vn -0.6726 0.4554 -0.5833
vn -0.7300 0.4493 -0.5151
vn 0.0003 0.9305 0.3662
vn 0.1450 0.4947 0.8569
vn 0.0637 0.9288 0.3650
vn -0.3032 0.8969 -0.3219
vn -0.5127 0.4705 -0.7181
vn -0.6007 0.4627 -0.6520
vn -0.1452 0.4951 0.8566
vn -0.2836 0.4856 -0.8269
vn -0.4067 0.4786 -0.7782
vn -0.2408 0.9128 0.3298
vn -0.4051 0.4831 0.7762
vn -0.1846 0.9202 0.3452
vn 0.8878 0.1874 -0.4204
vn 0.9170 0.1845 -0.3537
vn -0.0653 0.9239 -0.3771
vn -0.0002 0.4923 -0.8704
vn -0.1457 0.4906 -0.8591
vn -0.5990 0.4668 0.6506
vn 0.5505 0.8247 -0.1295
vn 0.8615 0.4325 -0.2660
vn 0.5325 0.8309 -0.1614
vn 0.2844 0.4846 -0.8272
vn 0.1456 0.4901 -0.8594
vn -0.3875 0.8822 0.2676
vn -0.7736 0.4480 0.4482
vn -0.7281 0.4532 0.5143
vn 0.8894 0.4298 -0.1557
vn 0.1924 0.9134 -0.3588
vn 0.5129 0.4692 -0.7188
vn 0.4066 0.4776 -0.7788
vn -0.8373 0.4407 0.3235
vn -0.8093 0.4440 0.3846
vn 0.5831 0.8124 -0.0003
vn 0.9019 0.4288 -0.0511
vn 0.5834 0.8115 -0.0327
vn 0.6185 0.4557 -0.6401
vn -0.5149 0.8430 0.1558
vn -0.8750 0.4365 0.2094
vn -0.8587 0.4384 0.2655
vn 0.9017 0.4294 0.0514
vn 0.4513 0.8488 -0.2755
vn 0.7173 0.4563 -0.5265
vn 0.4374 0.8389 -0.3241
vn -0.8949 0.4343 0.1026
vn -0.8869 0.4351 0.1555
vn 0.5458 0.8281 0.1278
vn 0.8889 0.4309 0.1556
vn 0.5628 0.8209 0.0965
vn 0.8907 -0.1596 -0.4257
vn 0.9444 -0.1472 0.2940
vn -0.9909 -0.1349 -0.0000
vn -0.9777 0.1774 -0.1124
vn 0.8504 0.1906 0.4903
vn -0.9567 0.1800 -0.2288
vn 0.7424 0.1985 0.6399
vn -0.9170 0.1845 -0.3536
vn 0.5715 0.2076 0.7939
vn -0.8504 0.1906 -0.4904
vn 0.3192 0.2163 0.9227
vn -0.7423 0.1985 -0.6399
vn -0.0000 0.2199 0.9755
vn -0.5715 0.2077 -0.7939
vn -0.2828 0.4900 0.8246
vn -0.3192 0.2163 -0.9227
vn -0.5111 0.4748 0.7164
vn -0.0000 0.2198 -0.9755
vn -0.6708 0.4594 0.5822
vn 0.8776 0.4310 -0.2099
vn 0.8972 0.4294 -0.1028
vn 0.9030 0.4296 0.0001
vn 0.6897 0.4524 -0.5654
vn 0.9777 0.1774 0.1124
vn 0.7652 0.4451 -0.4651
vn 0.9567 0.1800 0.2288
vn 0.8519 -0.1675 -0.4961
vn 0.5668 -0.2086 -0.7970
vn 0.2516 0.9046 -0.3440
vn -0.2481 0.9070 -0.3403
vn -0.4343 0.8664 -0.2466
vn -0.5399 0.8321 -0.1271
vn -0.5715 0.8206 -0.0003
vn -0.9622 -0.1426 0.2321
vn -0.5344 0.8359 0.1252
vn -0.8519 -0.1674 0.4962
vn -0.4262 0.8718 0.2415
vn -0.5668 -0.2086 0.7970
vn 0.9909 -0.1349 -0.0000
vn 0.9622 -0.1428 -0.2321
vn 0.0003 0.9251 -0.3796
vn 0.8967 0.4305 0.1029
vn -0.0001 0.4966 0.8680
vn 0.2823 0.4895 0.8250
vn 0.5111 0.4737 0.7172
vn 0.6715 0.4575 0.5829
vn 0.7747 0.4455 0.4487
vn 0.8765 0.4332 0.2101
vt 0.500004 0.500000
vt 0.500002 0.500000
vt 0.500004 0.500001
vt 0.499996 0.499999
vt 0.499996 0.499998
vt 0.500001 0.500000
vt 0.500001 0.499999
vt 0.499997 0.499997
vt 0.499998 0.500000
vt 0.499997 0.499996
vt 0.499999 0.500001
vt 0.499999 0.499999
vt 0.499999 0.499998
vt 0.499996 0.500001
vt 0.499997 0.500004
vt 0.499998 0.499996
vt 0.499999 0.499997
vt 0.499996 0.500002
vt 0.499998 0.500004
vt 0.499997 0.500003
vt 0.499999 0.500003
vt 0.500004 0.499999
vt 0.500004 0.499997
vt 0.500001 0.500001
vt 0.500003 0.499996
vt 0.500001 0.500003
vt 0.500002 0.500004
vt 0.500004 0.500003
vt 0.500002 0.499996
vt 0.500004 0.500002
vt 0.500003 0.500004
vt 0.500001 0.499998
vt 0.499999 0.500002
vt 0.500001 0.499997
vt 0.499996 0.500003
vt 0.499996 0.500000
vt 0.500001 0.500002
vt 0.499996 0.499997
vt 0.499999 0.500000
s 1
usemtl None.011
f 139/1/1 3/2/2 1/3/3
f 131/4/4 7/5/5 134/4/6
f 203/6/7 3/2/2 9/7/8
f 249/8/9 14/9/10 12/10/11
f 202/11/12 14/9/10 16/11/13
f 209/12/14 14/9/10 19/12/15
f 135/4/16 14/9/10 21/4/17
f 217/13/18 14/9/10 24/13/19
f 145/14/20 14/9/10 26/14/21
f 169/15/22 14/9/10 28/15/23
f 224/16/24 14/9/10 31/17/25
f 151/18/26 14/9/10 33/18/27
f 176/19/28 14/9/10 35/19/29
f 231/16/30 14/9/10 37/16/31
f 156/15/32 14/9/10 39/20/33
f 186/21/34 14/9/10 40/19/35
f 240/10/36 14/9/10 42/10/37
f 134/4/6 3/2/2 8/22/38
f 254/23/39 3/2/2 43/23/40
f 195/24/41 3/2/2 45/24/42
f 244/25/43 3/2/2 47/25/44
f 187/26/45 3/2/2 49/26/46
f 237/25/47 3/2/2 51/25/48
f 179/27/49 3/2/2 53/27/50
f 160/28/51 3/2/2 55/28/52
f 227/29/53 3/2/2 58/29/54
f 174/27/55 3/2/2 60/27/56
f 150/30/57 3/2/2 62/30/58
f 163/31/59 3/2/2 63/31/60
f 213/32/61 3/2/2 64/32/62
f 258/5/63 14/9/10 66/5/64
f 192/33/65 14/9/10 67/33/66
f 220/34/67 3/2/2 68/34/68
f 70/12/69 207/12/70 208/12/71
f 72/35/72 160/28/51 161/35/73
f 136/4/74 8/22/38 137/4/75
f 69/12/76 213/32/61 211/13/77
f 71/20/78 157/15/79 158/15/80
f 73/36/81 139/1/1 140/36/82
f 74/13/83 218/17/84 215/17/85
f 75/15/86 163/31/59 165/15/87
f 76/14/88 143/14/89 146/14/90
f 77/17/91 220/34/67 221/17/92
f 78/15/93 170/15/94 167/15/95
f 79/14/96 150/30/57 149/18/97
f 80/17/98 225/16/99 226/16/100
f 172/19/101 61/31/102 174/27/55
f 152/18/103 33/18/27 86/18/104
f 83/16/105 227/29/53 228/16/106
f 177/19/107 60/27/56 175/19/108
f 87/16/109 234/16/110 233/16/111
f 182/19/112 54/27/113 179/27/49
f 235/10/114 52/29/115 237/25/47
f 184/21/116 53/27/50 183/21/117
f 241/10/118 51/25/48 242/10/119
f 190/21/120 50/26/121 187/26/45
f 243/10/122 48/25/123 244/25/43
f 194/33/124 49/26/46 191/33/125
f 248/8/126 47/25/44 250/8/127
f 198/11/128 46/37/129 195/24/41
f 252/38/130 44/23/131 254/23/39
f 201/11/132 45/24/42 200/11/133
f 255/5/134 66/5/64 102/5/135
f 204/39/136 104/39/137 206/39/138
f 205/39/139 104/39/137 100/39/140
f 255/5/134 99/38/141 256/5/142
f 202/11/12 105/11/143 199/11/144
f 13/38/145 253/38/146 251/38/147
f 197/11/148 107/33/149 196/11/150
f 12/10/11 247/8/151 249/8/9
f 192/33/65 109/33/152 193/33/153
f 15/10/154 246/10/155 245/10/156
f 188/21/157 111/21/158 189/21/159
f 42/10/37 239/10/160 240/10/36
f 186/21/34 113/19/161 185/21/162
f 38/16/163 238/10/164 236/10/165
f 181/19/166 115/19/167 180/19/168
f 37/16/31 232/16/169 231/16/30
f 176/19/28 117/19/170 178/19/171
f 32/16/172 230/16/173 229/16/174
f 154/35/175 86/18/104 82/18/176
f 171/19/177 119/15/178 173/19/179
f 31/17/25 223/16/180 224/16/24
f 27/14/181 147/18/182 148/18/183
f 169/15/22 122/15/184 168/15/185
f 219/17/186 123/17/187 222/17/188
f 26/14/21 144/14/189 145/14/20
f 166/15/190 125/15/191 164/15/192
f 217/13/18 126/13/193 216/13/194
f 22/36/195 142/36/196 141/36/197
f 39/20/33 155/15/198 156/15/32
f 214/13/199 129/12/200 212/13/201
f 21/4/17 138/4/202 135/4/16
f 34/35/203 159/35/204 162/35/205
f 209/12/14 103/12/206 210/12/207
f 23/5/208 133/4/209 132/4/210
f 153/35/211 82/18/176 62/30/58
f 256/5/142 43/23/40 257/5/212
f 203/6/7 100/39/140 10/6/213
f 199/11/144 98/11/214 201/11/132
f 253/38/146 97/38/215 252/38/130
f 196/11/150 96/33/216 198/11/128
f 247/8/151 95/10/217 248/8/126
f 193/33/153 94/21/218 194/33/124
f 246/10/155 93/10/219 243/10/122
f 189/21/159 92/21/220 190/21/120
f 239/10/160 91/10/221 241/10/118
f 185/21/162 90/19/222 184/21/116
f 238/10/164 89/16/223 235/10/114
f 180/19/168 88/19/224 182/19/112
f 116/16/225 233/16/111 232/16/169
f 178/19/171 84/19/226 177/19/107
f 118/16/227 228/16/106 230/16/173
f 173/19/179 81/15/228 172/19/101
f 120/17/229 226/16/100 223/16/180
f 121/14/230 149/18/97 147/18/182
f 122/15/184 167/15/95 168/15/185
f 123/17/187 221/17/92 222/17/188
f 124/14/231 146/14/90 144/14/189
f 125/15/191 165/15/87 164/15/192
f 126/13/193 215/17/85 216/13/194
f 127/36/232 140/36/82 142/36/196
f 128/20/233 158/15/80 155/15/198
f 129/12/200 211/13/77 212/13/201
f 138/4/202 5/4/234 136/4/74
f 85/35/235 161/35/73 159/35/204
f 103/12/206 208/12/71 210/12/207
f 133/4/209 6/5/236 131/4/4
f 148/18/183 14/9/10 27/14/181
f 153/35/211 3/2/2 56/28/237
f 157/15/79 3/2/2 57/31/238
f 162/35/205 14/9/10 34/35/203
f 166/15/190 14/9/10 30/15/239
f 170/15/94 3/2/2 61/31/102
f 183/21/117 3/2/2 50/26/121
f 181/19/166 14/9/10 36/19/240
f 188/21/157 14/9/10 41/21/241
f 191/33/125 3/2/2 46/37/129
f 197/11/148 14/9/10 18/33/242
f 200/11/133 3/2/2 10/6/213
f 204/39/136 14/9/10 17/39/243
f 207/12/70 3/2/2 11/7/244
f 214/13/199 14/9/10 20/12/245
f 218/17/84 3/2/2 65/34/246
f 219/17/186 14/9/10 25/17/247
f 225/16/99 3/2/2 59/29/248
f 229/16/174 14/9/10 32/16/172
f 234/16/110 3/2/2 52/29/115
f 236/10/165 14/9/10 38/16/163
f 242/10/119 3/2/2 48/25/123
f 245/10/156 14/9/10 15/10/154
f 250/8/127 3/2/2 44/23/131
f 251/38/147 14/9/10 13/38/145
f 257/5/212 3/2/2 7/5/5
f 132/4/210 14/9/10 23/5/208
f 137/4/75 3/2/2 2/1/249
f 141/36/197 14/9/10 22/36/195
f 143/14/89 3/2/2 4/3/250
f 175/19/108 3/2/2 54/27/113
f 171/19/177 14/9/10 29/15/251
f 130/4/252 131/4/4 5/4/234
f 132/4/210 130/4/252 21/4/17
f 5/4/234 134/4/6 8/22/38
f 127/36/232 136/4/74 73/36/81
f 135/4/16 127/36/232 22/36/195
f 73/36/81 137/4/75 2/1/249
f 142/36/196 76/14/88 124/14/231
f 141/36/197 124/14/231 26/14/21
f 140/36/82 1/3/3 76/14/88
f 144/14/189 79/14/96 121/14/230
f 145/14/20 121/14/230 27/14/181
f 146/14/90 4/3/250 79/14/96
f 147/18/182 82/18/176 86/18/104
f 148/18/183 86/18/104 33/18/27
f 149/18/97 62/30/58 82/18/176
f 56/28/237 154/35/175 153/35/211
f 72/35/72 152/18/103 154/35/175
f 85/35/235 151/18/26 152/18/103
f 155/15/198 75/15/86 125/15/191
f 30/15/239 155/15/198 125/15/191
f 158/15/80 57/31/238 75/15/86
f 159/35/204 71/20/78 128/20/233
f 162/35/205 128/20/233 39/20/33
f 161/35/73 55/28/52 71/20/78
f 164/15/192 78/15/93 122/15/184
f 28/15/23 164/15/192 122/15/184
f 165/15/87 63/31/60 78/15/93
f 168/15/185 81/15/228 119/15/178
f 29/15/251 168/15/185 119/15/178
f 167/15/95 61/31/102 81/15/228
f 117/19/170 172/19/101 84/19/226
f 35/19/29 173/19/179 117/19/170
f 84/19/226 174/27/55 60/27/56
f 115/19/167 177/19/107 88/19/224
f 36/19/240 178/19/171 115/19/167
f 88/19/224 175/19/108 54/27/113
f 113/19/161 182/19/112 90/19/222
f 40/19/35 180/19/168 113/19/161
f 90/19/222 179/27/49 53/27/50
f 111/21/158 184/21/116 92/21/220
f 41/21/241 185/21/162 111/21/158
f 92/21/220 183/21/117 50/26/121
f 109/33/152 190/21/120 94/21/218
f 67/33/66 189/21/159 109/33/152
f 94/21/218 187/26/45 49/26/46
f 107/33/149 194/33/124 96/33/216
f 18/33/242 193/33/153 107/33/149
f 96/33/216 191/33/125 46/37/129
f 105/11/143 198/11/128 98/11/214
f 16/11/13 196/11/150 105/11/143
f 98/11/214 195/24/41 45/24/42
f 104/39/137 201/11/132 100/39/140
f 17/39/243 199/11/144 104/39/137
f 100/39/140 200/11/133 10/6/213
f 9/7/8 205/39/139 203/6/7
f 70/12/69 206/39/138 205/39/139
f 19/12/15 206/39/138 103/12/206
f 210/12/207 69/12/76 129/12/200
f 20/12/245 210/12/207 129/12/200
f 208/12/71 11/7/244 69/12/76
f 212/13/201 74/13/83 126/13/193
f 24/13/19 212/13/201 126/13/193
f 211/13/77 64/32/62 74/13/83
f 216/13/194 77/17/91 123/17/187
f 25/17/247 216/13/194 123/17/187
f 215/17/85 65/34/246 77/17/91
f 222/17/188 80/17/98 120/17/229
f 31/17/25 222/17/188 120/17/229
f 221/17/92 68/34/68 80/17/98
f 223/16/180 83/16/105 118/16/227
f 224/16/24 118/16/227 32/16/172
f 226/16/100 59/29/248 83/16/105
f 230/16/173 87/16/109 116/16/225
f 229/16/174 116/16/225 37/16/31
f 228/16/106 58/29/54 87/16/109
f 232/16/169 89/16/223 114/16/253
f 231/16/30 114/16/253 38/16/163
f 233/16/111 52/29/115 89/16/223
f 112/10/254 235/10/114 91/10/221
f 236/10/165 112/10/254 42/10/37
f 91/10/221 237/25/47 51/25/48
f 110/10/255 241/10/118 93/10/219
f 240/10/36 110/10/255 15/10/154
f 93/10/219 242/10/119 48/25/123
f 108/10/256 243/10/122 95/10/217
f 245/10/156 108/10/256 12/10/11
f 95/10/217 244/25/43 47/25/44
f 106/38/257 248/8/126 97/38/215
f 249/8/9 106/38/257 13/38/145
f 97/38/215 250/8/127 44/23/131
f 102/5/135 252/38/130 99/38/141
f 251/38/147 102/5/135 66/5/64
f 99/38/141 254/23/39 43/23/40
f 6/5/236 257/5/212 7/5/5
f 101/5/258 256/5/142 6/5/236
f 101/5/258 258/5/63 255/5/134
f 139/1/1 2/1/249 3/2/2
f 131/4/4 6/5/236 7/5/5
f 203/6/7 10/6/213 3/2/2
f 249/8/9 13/38/145 14/9/10
f 202/11/12 17/39/243 14/9/10
f 209/12/14 20/12/245 14/9/10
f 135/4/16 22/36/195 14/9/10
f 217/13/18 25/17/247 14/9/10
f 145/14/20 27/14/181 14/9/10
f 169/15/22 29/15/251 14/9/10
f 224/16/24 32/16/172 14/9/10
f 151/18/26 34/35/203 14/9/10
f 176/19/28 36/19/240 14/9/10
f 231/16/30 38/16/163 14/9/10
f 156/15/32 30/15/239 14/9/10
f 186/21/34 41/21/241 14/9/10
f 240/10/36 15/10/154 14/9/10
f 134/4/6 7/5/5 3/2/2
f 254/23/39 44/23/131 3/2/2
f 195/24/41 46/37/129 3/2/2
f 244/25/43 48/25/123 3/2/2
f 187/26/45 50/26/121 3/2/2
f 237/25/47 52/29/115 3/2/2
f 179/27/49 54/27/113 3/2/2
f 160/28/51 56/28/237 3/2/2
f 227/29/53 59/29/248 3/2/2
f 174/27/55 61/31/102 3/2/2
f 150/30/57 4/3/250 3/2/2
f 163/31/59 57/31/238 3/2/2
f 213/32/61 11/7/244 3/2/2
f 258/5/63 23/5/208 14/9/10
f 192/33/65 18/33/242 14/9/10
f 220/34/67 65/34/246 3/2/2
f 70/12/69 9/7/8 207/12/70
f 72/35/72 56/28/237 160/28/51
f 136/4/74 5/4/234 8/22/38
f 69/12/76 11/7/244 213/32/61
f 71/20/78 55/28/52 157/15/79
f 73/36/81 2/1/249 139/1/1
f 74/13/83 64/32/62 218/17/84
f 75/15/86 57/31/238 163/31/59
f 76/14/88 1/3/3 143/14/89
f 77/17/91 65/34/246 220/34/67
f 78/15/93 63/31/60 170/15/94
f 79/14/96 4/3/250 150/30/57
f 80/17/98 68/34/68 225/16/99
f 172/19/101 81/15/228 61/31/102
f 152/18/103 151/18/26 33/18/27
f 83/16/105 59/29/248 227/29/53
f 177/19/107 84/19/226 60/27/56
f 87/16/109 58/29/54 234/16/110
f 182/19/112 88/19/224 54/27/113
f 235/10/114 89/16/223 52/29/115
f 184/21/116 90/19/222 53/27/50
f 241/10/118 91/10/221 51/25/48
f 190/21/120 92/21/220 50/26/121
f 243/10/122 93/10/219 48/25/123
f 194/33/124 94/21/218 49/26/46
f 248/8/126 95/10/217 47/25/44
f 198/11/128 96/33/216 46/37/129
f 252/38/130 97/38/215 44/23/131
f 201/11/132 98/11/214 45/24/42
f 255/5/134 258/5/63 66/5/64
f 204/39/136 17/39/243 104/39/137
f 205/39/139 206/39/138 104/39/137
f 255/5/134 102/5/135 99/38/141
f 202/11/12 16/11/13 105/11/143
f 13/38/145 106/38/257 253/38/146
f 197/11/148 18/33/242 107/33/149
f 12/10/11 108/10/256 247/8/151
f 192/33/65 67/33/66 109/33/152
f 15/10/154 110/10/255 246/10/155
f 188/21/157 41/21/241 111/21/158
f 42/10/37 112/10/254 239/10/160
f 186/21/34 40/19/35 113/19/161
f 38/16/163 114/16/253 238/10/164
f 181/19/166 36/19/240 115/19/167
f 37/16/31 116/16/225 232/16/169
f 176/19/28 35/19/29 117/19/170
f 32/16/172 118/16/227 230/16/173
f 154/35/175 152/18/103 86/18/104
f 171/19/177 29/15/251 119/15/178
f 31/17/25 120/17/229 223/16/180
f 27/14/181 121/14/230 147/18/182
f 169/15/22 28/15/23 122/15/184
f 219/17/186 25/17/247 123/17/187
f 26/14/21 124/14/231 144/14/189
f 166/15/190 30/15/239 125/15/191
f 217/13/18 24/13/19 126/13/193
f 22/36/195 127/36/232 142/36/196
f 39/20/33 128/20/233 155/15/198
f 214/13/199 20/12/245 129/12/200
f 21/4/17 130/4/252 138/4/202
f 34/35/203 85/35/235 159/35/204
f 209/12/14 19/12/15 103/12/206
f 23/5/208 101/5/258 133/4/209
f 153/35/211 154/35/175 82/18/176
f 256/5/142 99/38/141 43/23/40
f 203/6/7 205/39/139 100/39/140
f 199/11/144 105/11/143 98/11/214
f 253/38/146 106/38/257 97/38/215
f 196/11/150 107/33/149 96/33/216
f 247/8/151 108/10/256 95/10/217
f 193/33/153 109/33/152 94/21/218
f 246/10/155 110/10/255 93/10/219
f 189/21/159 111/21/158 92/21/220
f 239/10/160 112/10/254 91/10/221
f 185/21/162 113/19/161 90/19/222
f 238/10/164 114/16/253 89/16/223
f 180/19/168 115/19/167 88/19/224
f 116/16/225 87/16/109 233/16/111
f 178/19/171 117/19/170 84/19/226
f 118/16/227 83/16/105 228/16/106
f 173/19/179 119/15/178 81/15/228
f 120/17/229 80/17/98 226/16/100
f 121/14/230 79/14/96 149/18/97
f 122/15/184 78/15/93 167/15/95
f 123/17/187 77/17/91 221/17/92
f 124/14/231 76/14/88 146/14/90
f 125/15/191 75/15/86 165/15/87
f 126/13/193 74/13/83 215/17/85
f 127/36/232 73/36/81 140/36/82
f 128/20/233 71/20/78 158/15/80
f 129/12/200 69/12/76 211/13/77
f 138/4/202 130/4/252 5/4/234
f 85/35/235 72/35/72 161/35/73
f 103/12/206 70/12/69 208/12/71
f 133/4/209 101/5/258 6/5/236
f 148/18/183 33/18/27 14/9/10
f 153/35/211 62/30/58 3/2/2
f 157/15/79 55/28/52 3/2/2
f 162/35/205 39/20/33 14/9/10
f 166/15/190 28/15/23 14/9/10
f 170/15/94 63/31/60 3/2/2
f 183/21/117 53/27/50 3/2/2
f 181/19/166 40/19/35 14/9/10
f 188/21/157 67/33/66 14/9/10
f 191/33/125 49/26/46 3/2/2
f 197/11/148 16/11/13 14/9/10
f 200/11/133 45/24/42 3/2/2
f 204/39/136 19/12/15 14/9/10
f 207/12/70 9/7/8 3/2/2
f 214/13/199 24/13/19 14/9/10
f 218/17/84 64/32/62 3/2/2
f 219/17/186 31/17/25 14/9/10
f 225/16/99 68/34/68 3/2/2
f 229/16/174 37/16/31 14/9/10
f 234/16/110 58/29/54 3/2/2
f 236/10/165 42/10/37 14/9/10
f 242/10/119 51/25/48 3/2/2
f 245/10/156 12/10/11 14/9/10
f 250/8/127 47/25/44 3/2/2
f 251/38/147 66/5/64 14/9/10
f 257/5/212 43/23/40 3/2/2
f 132/4/210 21/4/17 14/9/10
f 137/4/75 8/22/38 3/2/2
f 141/36/197 26/14/21 14/9/10
f 143/14/89 1/3/3 3/2/2
f 175/19/108 60/27/56 3/2/2
f 171/19/177 35/19/29 14/9/10
f 130/4/252 133/4/209 131/4/4
f 132/4/210 133/4/209 130/4/252
f 5/4/234 131/4/4 134/4/6
f 127/36/232 138/4/202 136/4/74
f 135/4/16 138/4/202 127/36/232
f 73/36/81 136/4/74 137/4/75
f 142/36/196 140/36/82 76/14/88
f 141/36/197 142/36/196 124/14/231
f 140/36/82 139/1/1 1/3/3
f 144/14/189 146/14/90 79/14/96
f 145/14/20 144/14/189 121/14/230
f 146/14/90 143/14/89 4/3/250
f 147/18/182 149/18/97 82/18/176
f 148/18/183 147/18/182 86/18/104
f 149/18/97 150/30/57 62/30/58
f 56/28/237 72/35/72 154/35/175
f 72/35/72 85/35/235 152/18/103
f 85/35/235 34/35/203 151/18/26
f 155/15/198 158/15/80 75/15/86
f 30/15/239 156/15/32 155/15/198
f 158/15/80 157/15/79 57/31/238
f 159/35/204 161/35/73 71/20/78
f 162/35/205 159/35/204 128/20/233
f 161/35/73 160/28/51 55/28/52
f 164/15/192 165/15/87 78/15/93
f 28/15/23 166/15/190 164/15/192
f 165/15/87 163/31/59 63/31/60
f 168/15/185 167/15/95 81/15/228
f 29/15/251 169/15/22 168/15/185
f 167/15/95 170/15/94 61/31/102
f 117/19/170 173/19/179 172/19/101
f 35/19/29 171/19/177 173/19/179
f 84/19/226 172/19/101 174/27/55
f 115/19/167 178/19/171 177/19/107
f 36/19/240 176/19/28 178/19/171
f 88/19/224 177/19/107 175/19/108
f 113/19/161 180/19/168 182/19/112
f 40/19/35 181/19/166 180/19/168
f 90/19/222 182/19/112 179/27/49
f 111/21/158 185/21/162 184/21/116
f 41/21/241 186/21/34 185/21/162
f 92/21/220 184/21/116 183/21/117
f 109/33/152 189/21/159 190/21/120
f 67/33/66 188/21/157 189/21/159
f 94/21/218 190/21/120 187/26/45
f 107/33/149 193/33/153 194/33/124
f 18/33/242 192/33/65 193/33/153
f 96/33/216 194/33/124 191/33/125
f 105/11/143 196/11/150 198/11/128
f 16/11/13 197/11/148 196/11/150
f 98/11/214 198/11/128 195/24/41
f 104/39/137 199/11/144 201/11/132
f 17/39/243 202/11/12 199/11/144
f 100/39/140 201/11/132 200/11/133
f 9/7/8 70/12/69 205/39/139
f 70/12/69 103/12/206 206/39/138
f 19/12/15 204/39/136 206/39/138
f 210/12/207 208/12/71 69/12/76
f 20/12/245 209/12/14 210/12/207
f 208/12/71 207/12/70 11/7/244
f 212/13/201 211/13/77 74/13/83
f 24/13/19 214/13/199 212/13/201
f 211/13/77 213/32/61 64/32/62
f 216/13/194 215/17/85 77/17/91
f 25/17/247 217/13/18 216/13/194
f 215/17/85 218/17/84 65/34/246
f 222/17/188 221/17/92 80/17/98
f 31/17/25 219/17/186 222/17/188
f 221/17/92 220/34/67 68/34/68
f 223/16/180 226/16/100 83/16/105
f 224/16/24 223/16/180 118/16/227
f 226/16/100 225/16/99 59/29/248
f 230/16/173 228/16/106 87/16/109
f 229/16/174 230/16/173 116/16/225
f 228/16/106 227/29/53 58/29/54
f 232/16/169 233/16/111 89/16/223
f 231/16/30 232/16/169 114/16/253
f 233/16/111 234/16/110 52/29/115
f 112/10/254 238/10/164 235/10/114
f 236/10/165 238/10/164 112/10/254
f 91/10/221 235/10/114 237/25/47
f 110/10/255 239/10/160 241/10/118
f 240/10/36 239/10/160 110/10/255
f 93/10/219 241/10/118 242/10/119
f 108/10/256 246/10/155 243/10/122
f 245/10/156 246/10/155 108/10/256
f 95/10/217 243/10/122 244/25/43
f 106/38/257 247/8/151 248/8/126
f 249/8/9 247/8/151 106/38/257
f 97/38/215 248/8/126 250/8/127
f 102/5/135 253/38/146 252/38/130
f 251/38/147 253/38/146 102/5/135
f 99/38/141 252/38/130 254/23/39
f 6/5/236 256/5/142 257/5/212
f 101/5/258 255/5/134 256/5/142
f 101/5/258 23/5/208 258/5/63
